<svg width="10" height="9" viewBox="0 0 10 9" fill="none" xmlns="http://www.w3.org/2000/svg">
<path d="M8.44558 0.735891C8.61838 0.570488 8.84834 0.479046 9.08693 0.480861C9.32551 0.482676 9.55407 0.577606 9.72436 0.745619C9.89466 0.913632 9.99337 1.14159 9.99968 1.38138C10.006 1.62118 9.91939 1.85406 9.75816 2.03089L4.86357 8.1852C4.77941 8.27634 4.67782 8.34948 4.5649 8.40025C4.45198 8.45102 4.33003 8.47837 4.20636 8.48068C4.08268 8.48298 3.95981 8.46018 3.8451 8.41365C3.73038 8.36712 3.62618 8.29781 3.53872 8.20987L0.292827 4.94648C0.202435 4.86179 0.129933 4.75967 0.0796475 4.64621C0.0293621 4.53274 0.00232279 4.41026 0.000143182 4.28606C-0.00203643 4.16186 0.0206883 4.03849 0.0669613 3.92331C0.113234 3.80813 0.182108 3.7035 0.269473 3.61567C0.356838 3.52783 0.460905 3.45859 0.575465 3.41206C0.690026 3.36554 0.812734 3.34269 0.936267 3.34489C1.0598 3.34708 1.18163 3.37426 1.29449 3.42482C1.40734 3.47538 1.50892 3.54827 1.59315 3.63915L4.16189 6.22051L8.42227 0.763025C8.42994 0.753529 8.43813 0.74447 8.4468 0.735891H8.44558Z" fill="#F4F4FD"/>
</svg>
